<mxfile host="app.diagrams.net" agent="Mozilla/5.0 (Windows NT 10.0; Win64; x64) AppleWebKit/537.36 (KHTML, like Gecko) Chrome/140.0.0.0 Safari/537.36" version="28.1.1">
  <diagram name="Page-1" id="Mwss1XFssBMCLn2Opw-_">
    <mxGraphModel dx="1025" dy="417" grid="1" gridSize="10" guides="1" tooltips="1" connect="1" arrows="1" fold="1" page="1" pageScale="1" pageWidth="850" pageHeight="1100" math="0" shadow="0">
      <root>
        <mxCell id="0" />
        <mxCell id="1" parent="0" />
        <mxCell id="1ZDxOe8ZEWnoqJAmuIBU-28" value="" style="rounded=0;whiteSpace=wrap;html=1;" vertex="1" parent="1">
          <mxGeometry x="210" y="595" width="260" height="90" as="geometry" />
        </mxCell>
        <mxCell id="1ZDxOe8ZEWnoqJAmuIBU-33" style="edgeStyle=orthogonalEdgeStyle;rounded=0;orthogonalLoop=1;jettySize=auto;html=1;" edge="1" parent="1" source="1ZDxOe8ZEWnoqJAmuIBU-3" target="1ZDxOe8ZEWnoqJAmuIBU-30">
          <mxGeometry relative="1" as="geometry" />
        </mxCell>
        <mxCell id="1ZDxOe8ZEWnoqJAmuIBU-3" value="Microphone" style="rounded=1;whiteSpace=wrap;html=1;" vertex="1" parent="1">
          <mxGeometry x="230" y="625" width="80" height="30" as="geometry" />
        </mxCell>
        <mxCell id="1ZDxOe8ZEWnoqJAmuIBU-5" value="&lt;div&gt;&lt;br&gt;&lt;/div&gt;" style="shape=cube;whiteSpace=wrap;html=1;boundedLbl=1;backgroundOutline=1;darkOpacity=0.05;darkOpacity2=0.1;" vertex="1" parent="1">
          <mxGeometry x="540" y="580" width="170" height="130" as="geometry" />
        </mxCell>
        <mxCell id="1ZDxOe8ZEWnoqJAmuIBU-6" value="" style="shape=cylinder3;whiteSpace=wrap;html=1;boundedLbl=1;backgroundOutline=1;size=15;" vertex="1" parent="1">
          <mxGeometry x="790" y="500" width="200" height="250" as="geometry" />
        </mxCell>
        <mxCell id="1ZDxOe8ZEWnoqJAmuIBU-14" style="edgeStyle=orthogonalEdgeStyle;rounded=0;orthogonalLoop=1;jettySize=auto;html=1;entryX=0.5;entryY=0;entryDx=0;entryDy=0;" edge="1" parent="1" source="1ZDxOe8ZEWnoqJAmuIBU-8" target="1ZDxOe8ZEWnoqJAmuIBU-9">
          <mxGeometry relative="1" as="geometry" />
        </mxCell>
        <mxCell id="1ZDxOe8ZEWnoqJAmuIBU-8" value="STT (Whisper Base)" style="rounded=1;whiteSpace=wrap;html=1;" vertex="1" parent="1">
          <mxGeometry x="840" y="560" width="100" height="30" as="geometry" />
        </mxCell>
        <mxCell id="1ZDxOe8ZEWnoqJAmuIBU-15" style="edgeStyle=orthogonalEdgeStyle;rounded=0;orthogonalLoop=1;jettySize=auto;html=1;exitX=0.5;exitY=1;exitDx=0;exitDy=0;entryX=0.5;entryY=0;entryDx=0;entryDy=0;" edge="1" parent="1" source="1ZDxOe8ZEWnoqJAmuIBU-9" target="1ZDxOe8ZEWnoqJAmuIBU-12">
          <mxGeometry relative="1" as="geometry" />
        </mxCell>
        <mxCell id="1ZDxOe8ZEWnoqJAmuIBU-9" value="LLM (Azure OpenAI)" style="rounded=1;whiteSpace=wrap;html=1;" vertex="1" parent="1">
          <mxGeometry x="840" y="625" width="100" height="30" as="geometry" />
        </mxCell>
        <mxCell id="1ZDxOe8ZEWnoqJAmuIBU-12" value="TTS(Azure Voice Services)" style="rounded=1;whiteSpace=wrap;html=1;" vertex="1" parent="1">
          <mxGeometry x="840" y="680" width="100" height="30" as="geometry" />
        </mxCell>
        <mxCell id="1ZDxOe8ZEWnoqJAmuIBU-16" style="edgeStyle=orthogonalEdgeStyle;rounded=0;orthogonalLoop=1;jettySize=auto;html=1;entryX=1;entryY=0.75;entryDx=0;entryDy=0;" edge="1" parent="1" source="1ZDxOe8ZEWnoqJAmuIBU-12" target="1ZDxOe8ZEWnoqJAmuIBU-22">
          <mxGeometry relative="1" as="geometry" />
        </mxCell>
        <mxCell id="1ZDxOe8ZEWnoqJAmuIBU-34" style="edgeStyle=orthogonalEdgeStyle;rounded=0;orthogonalLoop=1;jettySize=auto;html=1;entryX=0;entryY=0.25;entryDx=0;entryDy=0;" edge="1" parent="1" source="1ZDxOe8ZEWnoqJAmuIBU-21" target="1ZDxOe8ZEWnoqJAmuIBU-8">
          <mxGeometry relative="1" as="geometry" />
        </mxCell>
        <mxCell id="1ZDxOe8ZEWnoqJAmuIBU-21" value="FastAPI Backend" style="rounded=1;whiteSpace=wrap;html=1;" vertex="1" parent="1">
          <mxGeometry x="580" y="615" width="110" height="20" as="geometry" />
        </mxCell>
        <mxCell id="1ZDxOe8ZEWnoqJAmuIBU-22" value="Temp Audio Files" style="rounded=1;whiteSpace=wrap;html=1;" vertex="1" parent="1">
          <mxGeometry x="580" y="660" width="110" height="20" as="geometry" />
        </mxCell>
        <mxCell id="1ZDxOe8ZEWnoqJAmuIBU-23" value="" style="endArrow=classic;html=1;rounded=0;entryX=0.145;entryY=0.963;entryDx=0;entryDy=0;entryPerimeter=0;exitX=0.136;exitY=0.02;exitDx=0;exitDy=0;exitPerimeter=0;" edge="1" parent="1" source="1ZDxOe8ZEWnoqJAmuIBU-22" target="1ZDxOe8ZEWnoqJAmuIBU-21">
          <mxGeometry width="50" height="50" relative="1" as="geometry">
            <mxPoint x="596" y="660" as="sourcePoint" />
            <mxPoint x="600" y="720" as="targetPoint" />
          </mxGeometry>
        </mxCell>
        <mxCell id="1ZDxOe8ZEWnoqJAmuIBU-26" value="" style="endArrow=classic;html=1;rounded=0;entryX=0.75;entryY=0;entryDx=0;entryDy=0;" edge="1" parent="1" target="1ZDxOe8ZEWnoqJAmuIBU-22">
          <mxGeometry width="50" height="50" relative="1" as="geometry">
            <mxPoint x="663" y="630" as="sourcePoint" />
            <mxPoint x="660" y="650" as="targetPoint" />
          </mxGeometry>
        </mxCell>
        <mxCell id="1ZDxOe8ZEWnoqJAmuIBU-30" value="Browser (Web UI)" style="rounded=1;whiteSpace=wrap;html=1;" vertex="1" parent="1">
          <mxGeometry x="370" y="625" width="80" height="30" as="geometry" />
        </mxCell>
        <mxCell id="1ZDxOe8ZEWnoqJAmuIBU-31" value="" style="endArrow=classic;html=1;rounded=0;exitX=1;exitY=0.25;exitDx=0;exitDy=0;" edge="1" parent="1" source="1ZDxOe8ZEWnoqJAmuIBU-30" target="1ZDxOe8ZEWnoqJAmuIBU-21">
          <mxGeometry width="50" height="50" relative="1" as="geometry">
            <mxPoint x="480" y="615" as="sourcePoint" />
            <mxPoint x="540" y="615" as="targetPoint" />
          </mxGeometry>
        </mxCell>
        <mxCell id="1ZDxOe8ZEWnoqJAmuIBU-32" value="" style="endArrow=classic;html=1;rounded=0;exitX=0;exitY=0.5;exitDx=0;exitDy=0;entryX=1;entryY=1;entryDx=0;entryDy=0;" edge="1" parent="1" source="1ZDxOe8ZEWnoqJAmuIBU-22" target="1ZDxOe8ZEWnoqJAmuIBU-30">
          <mxGeometry width="50" height="50" relative="1" as="geometry">
            <mxPoint x="530" y="660" as="sourcePoint" />
            <mxPoint x="470" y="660" as="targetPoint" />
          </mxGeometry>
        </mxCell>
        <mxCell id="1ZDxOe8ZEWnoqJAmuIBU-35" value="&lt;b&gt;Frontend Client&lt;/b&gt;" style="whiteSpace=wrap;html=1;" vertex="1" parent="1">
          <mxGeometry x="250" y="490" width="120" height="60" as="geometry" />
        </mxCell>
        <mxCell id="1ZDxOe8ZEWnoqJAmuIBU-36" value="&lt;b&gt;FastAPI Backend&lt;/b&gt;" style="whiteSpace=wrap;html=1;" vertex="1" parent="1">
          <mxGeometry x="550" y="490" width="120" height="60" as="geometry" />
        </mxCell>
        <mxCell id="1ZDxOe8ZEWnoqJAmuIBU-37" value="&lt;b&gt;Pipeline Layer&lt;/b&gt;" style="whiteSpace=wrap;html=1;" vertex="1" parent="1">
          <mxGeometry x="830" y="420" width="120" height="60" as="geometry" />
        </mxCell>
      </root>
    </mxGraphModel>
  </diagram>
</mxfile>
